<mxfile host="65bd71144e">
    <diagram id="2q25wu3araWm0tXBuVtl" name="Page-1">
        <mxGraphModel dx="3088" dy="3161" grid="1" gridSize="10" guides="1" tooltips="1" connect="1" arrows="1" fold="1" page="1" pageScale="1" pageWidth="827" pageHeight="1169" math="0" shadow="0">
            <root>
                <mxCell id="0"/>
                <mxCell id="1" parent="0"/>
                <mxCell id="v1CAwTdxof7HSZb1vKmE-39" style="edgeStyle=orthogonalEdgeStyle;rounded=0;orthogonalLoop=1;jettySize=auto;html=1;entryX=0.5;entryY=1;entryDx=0;entryDy=0;entryPerimeter=0;fontSize=36;" parent="1" source="v1CAwTdxof7HSZb1vKmE-22" target="v1CAwTdxof7HSZb1vKmE-36" edge="1">
                    <mxGeometry relative="1" as="geometry"/>
                </mxCell>
                <mxCell id="v1CAwTdxof7HSZb1vKmE-22" value="Instance 1" style="shape=module;align=left;spacingLeft=20;align=center;verticalAlign=top;fontSize=36;" parent="1" vertex="1">
                    <mxGeometry x="40" y="-40" width="700" height="500" as="geometry"/>
                </mxCell>
                <mxCell id="v1CAwTdxof7HSZb1vKmE-18" value="RER" style="shape=module;align=left;spacingLeft=20;align=center;verticalAlign=top;fontSize=16;" parent="1" vertex="1">
                    <mxGeometry x="80" y="40" width="620" height="270" as="geometry"/>
                </mxCell>
                <mxCell id="v1CAwTdxof7HSZb1vKmE-14" value="Reporter" style="swimlane;fontStyle=0;childLayout=stackLayout;horizontal=1;startSize=26;fillColor=none;horizontalStack=0;resizeParent=1;resizeParentMax=0;resizeLast=0;collapsible=1;marginBottom=0;" parent="1" vertex="1">
                    <mxGeometry x="100" y="220" width="220" height="52" as="geometry"/>
                </mxCell>
                <mxCell id="v1CAwTdxof7HSZb1vKmE-15" value="+ generate(): void" style="text;strokeColor=none;fillColor=none;align=left;verticalAlign=top;spacingLeft=4;spacingRight=4;overflow=hidden;rotatable=0;points=[[0,0.5],[1,0.5]];portConstraint=eastwest;" parent="v1CAwTdxof7HSZb1vKmE-14" vertex="1">
                    <mxGeometry y="26" width="220" height="26" as="geometry"/>
                </mxCell>
                <mxCell id="v1CAwTdxof7HSZb1vKmE-6" value="Runner" style="swimlane;fontStyle=0;childLayout=stackLayout;horizontal=1;startSize=26;fillColor=none;horizontalStack=0;resizeParent=1;resizeParentMax=0;resizeLast=0;collapsible=1;marginBottom=0;" parent="1" vertex="1">
                    <mxGeometry x="100" y="70" width="220" height="104" as="geometry"/>
                </mxCell>
                <mxCell id="v1CAwTdxof7HSZb1vKmE-7" value="+ run(): Result[]" style="text;strokeColor=none;fillColor=none;align=left;verticalAlign=top;spacingLeft=4;spacingRight=4;overflow=hidden;rotatable=0;points=[[0,0.5],[1,0.5]];portConstraint=eastwest;" parent="v1CAwTdxof7HSZb1vKmE-6" vertex="1">
                    <mxGeometry y="26" width="220" height="26" as="geometry"/>
                </mxCell>
                <mxCell id="v1CAwTdxof7HSZb1vKmE-8" value="+ runClass():Result;" style="text;strokeColor=none;fillColor=none;align=left;verticalAlign=top;spacingLeft=4;spacingRight=4;overflow=hidden;rotatable=0;points=[[0,0.5],[1,0.5]];portConstraint=eastwest;" parent="v1CAwTdxof7HSZb1vKmE-6" vertex="1">
                    <mxGeometry y="52" width="220" height="26" as="geometry"/>
                </mxCell>
                <mxCell id="v1CAwTdxof7HSZb1vKmE-9" value="+ runClassMethod(): Result;" style="text;strokeColor=none;fillColor=none;align=left;verticalAlign=top;spacingLeft=4;spacingRight=4;overflow=hidden;rotatable=0;points=[[0,0.5],[1,0.5]];portConstraint=eastwest;" parent="v1CAwTdxof7HSZb1vKmE-6" vertex="1">
                    <mxGeometry y="78" width="220" height="26" as="geometry"/>
                </mxCell>
                <mxCell id="v1CAwTdxof7HSZb1vKmE-10" value="Events" style="swimlane;fontStyle=0;childLayout=stackLayout;horizontal=1;startSize=26;fillColor=none;horizontalStack=0;resizeParent=1;resizeParentMax=0;resizeLast=0;collapsible=1;marginBottom=0;" parent="1" vertex="1">
                    <mxGeometry x="414" y="70" width="276" height="104" as="geometry"/>
                </mxCell>
                <mxCell id="v1CAwTdxof7HSZb1vKmE-11" value="+ emit(event:Event)" style="text;strokeColor=none;fillColor=none;align=left;verticalAlign=top;spacingLeft=4;spacingRight=4;overflow=hidden;rotatable=0;points=[[0,0.5],[1,0.5]];portConstraint=eastwest;" parent="v1CAwTdxof7HSZb1vKmE-10" vertex="1">
                    <mxGeometry y="26" width="276" height="26" as="geometry"/>
                </mxCell>
                <mxCell id="v1CAwTdxof7HSZb1vKmE-12" value="+ subscribe(name: string, payload: any):void " style="text;strokeColor=none;fillColor=none;align=left;verticalAlign=top;spacingLeft=4;spacingRight=4;overflow=hidden;rotatable=0;points=[[0,0.5],[1,0.5]];portConstraint=eastwest;" parent="v1CAwTdxof7HSZb1vKmE-10" vertex="1">
                    <mxGeometry y="52" width="276" height="26" as="geometry"/>
                </mxCell>
                <mxCell id="v1CAwTdxof7HSZb1vKmE-13" value="+ unsubscribe(event:Event)" style="text;strokeColor=none;fillColor=none;align=left;verticalAlign=top;spacingLeft=4;spacingRight=4;overflow=hidden;rotatable=0;points=[[0,0.5],[1,0.5]];portConstraint=eastwest;" parent="v1CAwTdxof7HSZb1vKmE-10" vertex="1">
                    <mxGeometry y="78" width="276" height="26" as="geometry"/>
                </mxCell>
                <mxCell id="v1CAwTdxof7HSZb1vKmE-20" style="edgeStyle=orthogonalEdgeStyle;rounded=0;orthogonalLoop=1;jettySize=auto;html=1;entryX=0.5;entryY=1;entryDx=0;entryDy=0;" parent="1" source="v1CAwTdxof7HSZb1vKmE-19" target="v1CAwTdxof7HSZb1vKmE-18" edge="1">
                    <mxGeometry relative="1" as="geometry"/>
                </mxCell>
                <mxCell id="v1CAwTdxof7HSZb1vKmE-19" value="CLI" style="shape=module;align=left;spacingLeft=20;align=center;verticalAlign=top;" parent="1" vertex="1">
                    <mxGeometry x="340" y="380" width="100" height="50" as="geometry"/>
                </mxCell>
                <mxCell id="v1CAwTdxof7HSZb1vKmE-40" style="edgeStyle=orthogonalEdgeStyle;rounded=0;orthogonalLoop=1;jettySize=auto;html=1;fontSize=36;" parent="1" source="v1CAwTdxof7HSZb1vKmE-23" edge="1">
                    <mxGeometry relative="1" as="geometry">
                        <mxPoint x="810" y="-340" as="targetPoint"/>
                        <Array as="points">
                            <mxPoint x="1240" y="-190"/>
                            <mxPoint x="810" y="-190"/>
                        </Array>
                    </mxGeometry>
                </mxCell>
                <mxCell id="v1CAwTdxof7HSZb1vKmE-23" value="Instance 2" style="shape=module;align=left;spacingLeft=20;align=center;verticalAlign=top;fontSize=36;" parent="1" vertex="1">
                    <mxGeometry x="890" y="-40" width="700" height="500" as="geometry"/>
                </mxCell>
                <mxCell id="v1CAwTdxof7HSZb1vKmE-24" value="RER" style="shape=module;align=left;spacingLeft=20;align=center;verticalAlign=top;fontSize=16;" parent="1" vertex="1">
                    <mxGeometry x="930" y="40" width="620" height="270" as="geometry"/>
                </mxCell>
                <mxCell id="v1CAwTdxof7HSZb1vKmE-25" value="Events" style="swimlane;fontStyle=0;childLayout=stackLayout;horizontal=1;startSize=26;fillColor=none;horizontalStack=0;resizeParent=1;resizeParentMax=0;resizeLast=0;collapsible=1;marginBottom=0;" parent="1" vertex="1">
                    <mxGeometry x="1264" y="70" width="276" height="104" as="geometry"/>
                </mxCell>
                <mxCell id="v1CAwTdxof7HSZb1vKmE-26" value="+ emit(event:Event)" style="text;strokeColor=none;fillColor=none;align=left;verticalAlign=top;spacingLeft=4;spacingRight=4;overflow=hidden;rotatable=0;points=[[0,0.5],[1,0.5]];portConstraint=eastwest;" parent="v1CAwTdxof7HSZb1vKmE-25" vertex="1">
                    <mxGeometry y="26" width="276" height="26" as="geometry"/>
                </mxCell>
                <mxCell id="v1CAwTdxof7HSZb1vKmE-27" value="+ subscribe(name: string, payload: any):void " style="text;strokeColor=none;fillColor=none;align=left;verticalAlign=top;spacingLeft=4;spacingRight=4;overflow=hidden;rotatable=0;points=[[0,0.5],[1,0.5]];portConstraint=eastwest;" parent="v1CAwTdxof7HSZb1vKmE-25" vertex="1">
                    <mxGeometry y="52" width="276" height="26" as="geometry"/>
                </mxCell>
                <mxCell id="v1CAwTdxof7HSZb1vKmE-28" value="+ unsubscribe(event:Event)" style="text;strokeColor=none;fillColor=none;align=left;verticalAlign=top;spacingLeft=4;spacingRight=4;overflow=hidden;rotatable=0;points=[[0,0.5],[1,0.5]];portConstraint=eastwest;" parent="v1CAwTdxof7HSZb1vKmE-25" vertex="1">
                    <mxGeometry y="78" width="276" height="26" as="geometry"/>
                </mxCell>
                <mxCell id="v1CAwTdxof7HSZb1vKmE-29" value="Runner" style="swimlane;fontStyle=0;childLayout=stackLayout;horizontal=1;startSize=26;fillColor=none;horizontalStack=0;resizeParent=1;resizeParentMax=0;resizeLast=0;collapsible=1;marginBottom=0;" parent="1" vertex="1">
                    <mxGeometry x="950" y="70" width="220" height="104" as="geometry"/>
                </mxCell>
                <mxCell id="v1CAwTdxof7HSZb1vKmE-30" value="+ run(): Result[]" style="text;strokeColor=none;fillColor=none;align=left;verticalAlign=top;spacingLeft=4;spacingRight=4;overflow=hidden;rotatable=0;points=[[0,0.5],[1,0.5]];portConstraint=eastwest;" parent="v1CAwTdxof7HSZb1vKmE-29" vertex="1">
                    <mxGeometry y="26" width="220" height="26" as="geometry"/>
                </mxCell>
                <mxCell id="v1CAwTdxof7HSZb1vKmE-31" value="+ runClass():Result;" style="text;strokeColor=none;fillColor=none;align=left;verticalAlign=top;spacingLeft=4;spacingRight=4;overflow=hidden;rotatable=0;points=[[0,0.5],[1,0.5]];portConstraint=eastwest;" parent="v1CAwTdxof7HSZb1vKmE-29" vertex="1">
                    <mxGeometry y="52" width="220" height="26" as="geometry"/>
                </mxCell>
                <mxCell id="v1CAwTdxof7HSZb1vKmE-32" value="+ runClassMethod(): Result;" style="text;strokeColor=none;fillColor=none;align=left;verticalAlign=top;spacingLeft=4;spacingRight=4;overflow=hidden;rotatable=0;points=[[0,0.5],[1,0.5]];portConstraint=eastwest;" parent="v1CAwTdxof7HSZb1vKmE-29" vertex="1">
                    <mxGeometry y="78" width="220" height="26" as="geometry"/>
                </mxCell>
                <mxCell id="v1CAwTdxof7HSZb1vKmE-33" value="Reporter" style="swimlane;fontStyle=0;childLayout=stackLayout;horizontal=1;startSize=26;fillColor=none;horizontalStack=0;resizeParent=1;resizeParentMax=0;resizeLast=0;collapsible=1;marginBottom=0;" parent="1" vertex="1">
                    <mxGeometry x="950" y="220" width="220" height="52" as="geometry"/>
                </mxCell>
                <mxCell id="v1CAwTdxof7HSZb1vKmE-34" value="+ generate(): void" style="text;strokeColor=none;fillColor=none;align=left;verticalAlign=top;spacingLeft=4;spacingRight=4;overflow=hidden;rotatable=0;points=[[0,0.5],[1,0.5]];portConstraint=eastwest;" parent="v1CAwTdxof7HSZb1vKmE-33" vertex="1">
                    <mxGeometry y="26" width="220" height="26" as="geometry"/>
                </mxCell>
                <mxCell id="v1CAwTdxof7HSZb1vKmE-41" style="edgeStyle=orthogonalEdgeStyle;rounded=0;orthogonalLoop=1;jettySize=auto;html=1;entryX=0.5;entryY=1;entryDx=0;entryDy=0;fontSize=36;" parent="1" source="v1CAwTdxof7HSZb1vKmE-35" target="v1CAwTdxof7HSZb1vKmE-24" edge="1">
                    <mxGeometry relative="1" as="geometry"/>
                </mxCell>
                <mxCell id="v1CAwTdxof7HSZb1vKmE-35" value="CLI" style="shape=module;align=left;spacingLeft=20;align=center;verticalAlign=top;" parent="1" vertex="1">
                    <mxGeometry x="1190" y="380" width="100" height="50" as="geometry"/>
                </mxCell>
                <mxCell id="v1CAwTdxof7HSZb1vKmE-36" value="Observer&lt;br&gt;/&lt;br&gt;aggregator" style="shape=folder;fontStyle=1;spacingTop=10;tabWidth=40;tabHeight=14;tabPosition=left;html=1;fontSize=36;" parent="1" vertex="1">
                    <mxGeometry x="580" y="-590" width="460" height="260" as="geometry"/>
                </mxCell>
                <mxCell id="v1CAwTdxof7HSZb1vKmE-38" style="edgeStyle=orthogonalEdgeStyle;rounded=0;orthogonalLoop=1;jettySize=auto;html=1;entryX=0;entryY=0;entryDx=0;entryDy=137;entryPerimeter=0;fontSize=36;" parent="1" source="v1CAwTdxof7HSZb1vKmE-37" target="v1CAwTdxof7HSZb1vKmE-36" edge="1">
                    <mxGeometry relative="1" as="geometry"/>
                </mxCell>
                <mxCell id="v1CAwTdxof7HSZb1vKmE-37" value="Vault" style="shape=folder;fontStyle=1;spacingTop=10;tabWidth=40;tabHeight=14;tabPosition=left;html=1;fontSize=36;" parent="1" vertex="1">
                    <mxGeometry x="60" y="-560" width="320" height="180" as="geometry"/>
                </mxCell>
            </root>
        </mxGraphModel>
    </diagram>
</mxfile>